Simulation
nRows=43
nColumns=15
endheader
time  TH_x TH_y TH_z SC_y  SC_z  SC_x  AC_y  AC_z  AC_x  GH_y  GH_z  GH_yy  EL_x  PS_y
8.073123595505619  0.000000  0.000000  0.000000  -23.83511402696925  5.743164060727008  -1.086896220778458  58.86783012749632  6.8410822723630575  6.7309592343822295  -53.97262093819619  3.901608140619411  109.2355324625512  16.78313141023771  120.000000
8.113288389513109  0.000000  0.000000  0.000000  -23.554033267841604  5.690126623085477  -1.49006055513437  58.97078787590878  6.374350984995674  6.991559891339405  -36.610210740825615  4.5485583190678485  91.335589458861  16.28950412349339  120.000000
8.153453183520599  0.000000  0.000000  0.000000  -23.260080549247604  5.629101250128661  -1.889786062707644  59.11345844496301  5.94349426311043  7.286333087013787  -23.209481400191134  5.523549943023991  77.20723977516204  15.740266734510765  120.000000
8.19361797752809  0.000000  0.000000  0.000000  -22.95900076606611  5.575798953073264  -2.2574352255490577  59.30447587319225  5.577161200444229  7.615211252463916  -13.135146652161492  6.77587165367102  66.21507395864597  15.156004179467143  120.000000
8.23378277153558  0.000000  0.000000  0.000000  -22.658622501033097  5.5477913989823  -2.565274028188133  59.549686114700464  5.302415201293234  7.976105809887224  -5.505120872051074  8.280729704839471  57.47985313039982  14.559487025388693  120.000000
8.273947565543072  0.000000  0.000000  0.000000  -22.3689980438609  5.56203350793099  -2.788344401742647  59.8503327817246  5.141356831922868  8.366722020162172  0.3607912139703538  10.028748522083333  50.329034368950985  13.972682199235091  120.000000
8.314112359550561  0.000000  0.000000  0.000000  -22.099885274441736  5.63130225200233  -2.907345534645267  60.20202259951672  5.10885436805019  8.786073987460139  4.914029390152949  12.012344769559391  44.32603015485695  13.415576727181051  120.000000
8.354277153558053  0.000000  0.000000  0.000000  -21.858967359878044  5.762682361969008  -2.9129129490090473  60.60172936963887  5.210588125573145  9.232623189731152  8.47508723089453  14.21809909470188  39.17182666837427  12.903786878077417  120.000000
8.394441947565543  0.000000  0.000000  0.000000  -21.650755496947905  5.958361852054908  -2.803660421904014  61.04942944843086  5.441703780623159  9.702408974588504  11.283288510638965  16.625400183197822  34.65442947496839  12.447197182855684  120.000000
8.434606741573035  0.000000  0.000000  0.000000  -21.4781673316341  6.2158499564841545  -2.5815652523172217  61.540487952706  5.788346163671292  10.1919890253814  13.50351723058119  19.205925072243225  30.640553154908556  12.050566047815495  120.000000
8.474771535580524  0.000000  0.000000  0.000000  -21.344870514157567  6.529040295771313  -2.2507130848922463  62.06687274252809  6.23033193209452  10.697017998463101  15.256441968734617  21.927026192108862  27.041745322845916  11.712174028949669  120.000000
8.514936329588014  0.000000  0.000000  0.000000  -21.25259777507808  6.889252970207918  -1.816703589228791  62.61903186833566  6.744795633060874  11.211455487481297  16.63320321015272  24.753429391458397  23.797455342070712  11.42628578749176  120.000000
8.555101123595506  0.000000  0.000000  0.000000  -21.201874207280618  7.2867838817547925  -1.2857220124642492  63.18621705580469  7.307314862720887  11.730549341610146  17.70622113007814  27.648863482690953  20.86251991981178  11.185609939228826  120.000000
8.595265917602996  0.000000  0.000000  0.000000  -21.192837256071698  7.71203188712857  -0.6636313912386232  63.758011658604225  7.893484971387578  12.250597440762498  18.537657111866597  30.578872660971097  18.19729850024789  10.983163800226988  120.000000
8.635430711610487  0.000000  0.000000  0.000000  -21.223774957975895  8.15495694070111  0.043641960017701195  64.32351332525371  8.480940238452312  12.766844782009091  19.176471575730368  33.512329805911264  15.769632599053852  10.813299683659377  120.000000
8.675595505617977  0.000000  0.000000  0.000000  -21.29405190057048  8.606397779715547  0.829482582079372  64.87121575426958  9.049331715899532  13.273419653363131  19.658418056752378  36.420580472412205  13.55410208340834  10.670960557308103  120.000000
8.715760299625469  0.000000  0.000000  0.000000  -21.40412307265055  9.058718960323747  1.6859304773780266  65.38873342516855  9.580243806388571  13.763842735948568  20.010070722833426  39.27699467250507  11.52925967319319  10.552756811608553  120.000000
8.755925093632959  0.000000  0.000000  0.000000  -21.55331672935786  9.50530818078299  2.603873592545688  65.86526268580086  10.058441821312766  14.231725566180861  20.252549899711862  42.05718372465639  9.675066439753646  10.456373861847425  120.000000
8.79608988764045  0.000000  0.000000  0.000000  -21.73924428534736  9.940739724408118  3.573208963527349  66.29269361723098  10.472617729594015  14.671561725696666  20.40276428492855  44.73909937799314  7.972901388030659  10.380350699000749  120.000000
8.83625468164794  0.000000  0.000000  0.000000  -21.9581727193752  10.360693198264833  4.582554068469795  66.66501250154056  10.815326872137916  15.07873163201855  20.473423714517  47.3028354420269  6.406358617166489  10.323935306240308  120.000000
8.87641947565543  0.000000  0.000000  0.000000  -22.20536307175584  10.761760126776833  5.618993633171418  66.97853658314777  11.08283380070081  15.449581133783987  20.474300327661354  49.73060579616119  4.961196167766148  10.28628487625135  120.000000
8.916584269662922  0.000000  0.000000  0.000000  -22.47487350799836  11.14120355750737  6.668520899120638  67.2320468782438  11.275129397196386  15.781426880116792  20.41377835981014  52.007328593185555  3.6252549916998698  10.266363952882049  120.000000
8.956749063670411  0.000000  0.000000  0.000000  -22.759937169195556  11.49691943817882  7.716909023188672  67.42693507826203  11.396073570687491  16.072844142433024  20.3001567224878  54.12126392816658  2.3886045289451827  10.262457359029673  120.000000
8.996913857677903  0.000000  0.000000  0.000000  -23.053598880242248  11.827365041851305  8.750559208438084  67.56666330499462  11.453073436338101  16.323730856628597  20.142271094032157  56.06449858290555  1.244154450268432  10.272031041038716  120.000000
9.037078651685393  0.000000  0.000000  0.000000  -23.349466066069105  12.131410404417423  9.757074992820522  67.65623891709933  11.456387195943138  16.535155867194756  19.949735820511837  57.832837475946306  0.1880871469270613  10.291506915583097  120.000000
9.077243445692885  0.000000  0.000000  0.000000  -23.642260131745818  12.4081220758947  10.72551867253663  67.70148000744639  11.417960973551208  16.70914774547364  19.73293715884913  59.42545510684251  -0.780084660169483  10.316428480226062  120.000000
9.117408239700374  0.000000  0.000000  0.000000  -23.928086672879413  12.656711595179376  11.646667777649661  67.70857936443919  11.350384909884975  16.84825532273358  19.502763836669484  60.8442601783032  -1.658112175762842  10.341874831475838  120.000000
9.157573033707866  0.000000  0.000000  0.000000  -24.204184918526924  12.876470062349322  12.512920370801174  67.68388630458286  11.265751064532475  16.95522558245434  19.270369175044653  62.09308822303405  -2.4420578577651475  10.363147376451893  120.000000
9.197737827715356  0.000000  0.000000  0.000000  -24.46814848229392  13.066475602905959  13.317790401565649  67.634114873994  11.174518660974153  17.032750249141742  19.0470391362321  63.176346096251926  -3.1277104299259317  10.37657788732888  120.000000
9.237902621722846  0.000000  0.000000  0.000000  -24.717048719520797  13.225531713469753  14.055162392935022  67.56659309002224  11.08446061386218  17.083218992954546  18.844102663480474  64.09763536093674  -3.711820922735752  10.380193708668525  120.000000
9.278067415730337  0.000000  0.000000  0.000000  -24.946807474873797  13.35217553617709  14.718830206746416  67.48942508587204  11.000107330061232  17.108383343391715  18.67263208386138  64.85855594033087  -4.19298089290566  10.37398397575893  120.000000
9.318232209737827  0.000000  0.000000  0.000000  -25.151884812877565  13.444800137102133  15.30224944625485  67.41126065442756  10.922710930599111  17.109123391408477  18.54312529901687  65.45804891161741  -4.571789428027516  10.359562879241203  120.000000
9.358397003745319  0.000000  0.000000  0.000000  -25.325388898959083  13.501824941172996  15.798661393010962  67.34077055491075  10.850685848191741  17.085300363020856  18.46507724033492  65.8921216737156  -4.850483098863979  10.339408052014035  120.000000
9.398561797752809  0.000000  0.000000  0.000000  -25.45961596107751  13.52180794187301  16.201306389389984  67.2857853049277  10.780347207005013  17.035728785897856  18.44655134304151  66.15407326786938  -5.0320843935410915  10.315775946043136  120.000000
9.4387265917603  0.000000  0.000000  0.000000  -25.546662632183622  13.5035824147538  16.50372369019086  67.25239599305445  10.706535213905429  16.958259595452944  18.493798282319798  66.23473784124529  -5.119442585806025  10.28982661355241  120.000000
9.47889138576779  0.000000  0.000000  0.000000  -25.578890200481325  13.446298431977283  16.699625978430454  67.24442208052584  10.623204090613596  16.849862589904593  18.611212453823725  66.12281869729487  -5.114355883112637  10.26100837446726  120.000000
9.519056179775282  0.000000  0.000000  0.000000  -25.54950934897586  13.349496565505612  16.782511346630834  67.26274951721257  10.524406440601965  16.70712477302177  18.801158955998403  65.8052487978278  -5.017004893687148  10.22711562929267  120.000000
9.559220973782772  0.000000  0.000000  0.000000  -25.45327407273548  13.212979645964616  16.745854832364046  67.30464202339822  10.40487945374034  16.526771461167932  19.063621011342878  65.26793357728651  -4.825574845587594  10.184915793946635  120.000000
9.599385767790261  0.000000  0.000000  0.000000  -25.28712177957832  13.036699007789268  16.583503156388986  67.3636624863408  10.260422349424468  16.306012928822952  19.39598359193229  64.49639852537761  -4.536234646827545  10.131334545847665  120.000000
9.639550561797753  0.000000  0.000000  0.000000  -25.05050440348985  12.820706780559602  16.289814013811  67.42978805875336  10.08822279101253  16.042885934885597  19.79289735700422  63.476481090775124  -4.143273601454434  10.065025708201432  120.000000
9.679715355805243  0.000000  0.000000  0.000000  -24.74605847519034  12.565282954027374  15.860099692283711  67.4896337194181  9.88718812861378  15.736346958324846  20.24585179734065  62.19512092723208  -3.639146997105605  9.987734825676608  120.000000
9.719880149812735  0.000000  0.000000  0.000000  -24.380860075549734  12.271232412648018  15.291163098615064  67.52664911005908  9.658079032274369  15.386037280227331  20.742543362815542  60.641441082509154  -3.0144204906107506  9.905187212858982  120.000000
9.760044943820224  0.000000  0.000000  0.000000  -23.9669817613508  11.93972894992493  14.582077530824328  67.52160817403335  9.40341767648139  14.992554696322964  21.266725608523316  58.80797310247622  -2.2576555687401294  9.82716907545919  120.000000
